<svg width="64" height="64" viewBox="0 0 64 64" fill="none" xmlns="http://www.w3.org/2000/svg">
<circle cx="32" cy="32" r="32" fill="url(#paint0_linear_134_2515)"/>
<path d="M41.8121 29.8092H34.1818V22.1852C34.1818 20.9784 33.2081 20 32.0013 20C30.7945 20 29.8214 20.9784 29.8214 22.1858V29.8145H22.1873C20.9806 29.8145 19.9995 30.7929 20 32.0003C19.9995 32.6034 20.2432 33.1563 20.638 33.5512C21.0334 33.9471 21.5789 34.1971 22.1815 34.1971H29.8214V41.8153C29.8214 42.419 30.0608 42.9655 30.4562 43.3599C30.8516 43.7553 31.3955 44 31.9992 44C33.2055 44 34.1818 43.0216 34.1818 41.8153V34.1966H41.8121C43.0189 34.1966 43.9974 33.2097 43.9968 32.0029C43.9963 30.7966 43.0179 29.8092 41.8121 29.8092Z" fill="white"/>
<defs>
<linearGradient id="paint0_linear_134_2515" x1="0" y1="64" x2="57.4974" y2="-5.38828" gradientUnits="userSpaceOnUse">
<stop stop-color="#EF9C14"/>
<stop offset="0.5" stop-color="#F18231"/>
<stop offset="1" stop-color="#F2B34B"/>
</linearGradient>
</defs>
</svg>
