<svg width="64" height="64" viewBox="0 0 64 64" fill="none" xmlns="http://www.w3.org/2000/svg">
<circle cx="32" cy="32" r="32" fill="url(#paint0_linear_134_2465)"/>
<path d="M43.6052 27.4411V22.6646C43.6052 20.382 42.0048 18.3248 39.099 16.872C36.536 15.5905 33.1631 14.8848 29.6016 14.8848C26.0397 14.8848 22.6667 15.5905 20.1038 16.872C17.1982 18.3248 15.598 20.382 15.598 22.6646V28.8883V35.1119V41.3356C15.598 43.6183 17.1982 45.6754 20.1039 47.1283C22.6668 48.4098 26.0398 49.1154 29.6017 49.1154C32.3151 49.1154 34.9018 48.7106 37.1365 47.9429C38.6134 48.6923 40.2827 49.1154 42.0491 49.1154C48.0555 49.1154 52.9421 44.2288 52.9421 38.2224C52.942 32.7443 48.8771 28.1985 43.6052 27.4411ZM18.7103 33.8706C19.1347 34.1574 19.599 34.4285 20.1039 34.6809C22.6668 35.9623 26.0399 36.6681 29.6017 36.6681C30.1634 36.6681 30.7217 36.6495 31.2749 36.6146C31.197 37.1394 31.156 37.6763 31.156 38.2225C31.156 38.7307 31.1918 39.2309 31.2595 39.7208C30.7127 39.7598 30.1589 39.7795 29.6017 39.7795C23.368 39.7796 18.7103 37.3153 18.7103 35.112V33.8706ZM32.2833 33.4006C31.4095 33.5034 30.5109 33.5557 29.6016 33.5557C23.368 33.5558 18.7103 31.0916 18.7103 28.8883V27.6469C19.1347 27.9338 19.599 28.2049 20.1039 28.4572C22.6668 29.7387 26.0399 30.4444 29.6017 30.4444C31.5181 30.4444 33.3783 30.2383 35.0887 29.8499C33.9231 30.8205 32.9632 32.0292 32.2833 33.4006ZM29.6016 17.9971C35.8351 17.9971 40.4928 20.4613 40.4928 22.6646C40.4928 24.8679 35.8351 27.3322 29.6016 27.3322C23.368 27.3322 18.7103 24.8679 18.7103 22.6646C18.7103 20.4613 23.368 17.9971 29.6016 17.9971ZM18.7103 41.3357V40.0944C19.1347 40.3813 19.599 40.6523 20.1039 40.9047C22.6668 42.1861 26.0398 42.8919 29.6017 42.8919C30.4607 42.8919 31.3137 42.8496 32.151 42.768C32.6257 43.7976 33.2562 44.7413 34.0125 45.568C32.6257 45.852 31.1243 46.0032 29.6016 46.0032C23.368 46.0032 18.7103 43.5389 18.7103 41.3357ZM42.049 46.0032C37.7587 46.0032 34.2683 42.5128 34.2683 38.2225C34.2683 33.9443 37.7392 30.4623 42.0129 30.4427C42.0251 30.443 42.0368 30.4446 42.049 30.4446C42.0613 30.4446 42.0729 30.443 42.0851 30.4427C46.3588 30.4623 49.8297 33.9443 49.8297 38.2225C49.8297 42.5128 46.3393 46.0032 42.049 46.0032Z" fill="white"/>
<defs>
<linearGradient id="paint0_linear_134_2465" x1="0" y1="64" x2="57.4974" y2="-5.38828" gradientUnits="userSpaceOnUse">
<stop stop-color="#EF9C14"/>
<stop offset="0.5" stop-color="#F18231"/>
<stop offset="1" stop-color="#F2B34B"/>
</linearGradient>
</defs>
</svg>
