<svg width="64" height="64" viewBox="0 0 64 64" fill="none" xmlns="http://www.w3.org/2000/svg">
<circle cx="32" cy="32" r="32" fill="url(#paint0_linear_134_2490)"/>
<path d="M42.336 20H35.1124C34.8366 20 34.5875 20.166 34.4827 20.4207C34.3765 20.6758 34.4351 20.9688 34.6304 21.164L36.2718 22.8054L22.8046 36.2712L21.1671 34.6327C20.972 34.4374 20.6774 34.3789 20.4219 34.4848C20.167 34.5906 20 34.8394 20 35.1161V42.335C20 42.7768 20.1749 43.2004 20.4875 43.5126C20.7998 43.8247 21.2234 44 21.6648 44H28.8844C29.1609 44 29.4093 43.8336 29.5156 43.5782C29.6218 43.323 29.5624 43.029 29.367 42.8336L27.7288 41.195L41.1952 27.7286L42.8358 29.3696C43.0311 29.5647 43.3241 29.6231 43.5795 29.5175C43.8342 29.4121 44 29.1632 44 28.8876V21.6646C44 20.7453 43.2546 20 42.336 20Z" fill="white"/>
<defs>
<linearGradient id="paint0_linear_134_2490" x1="0" y1="64" x2="57.4974" y2="-5.38828" gradientUnits="userSpaceOnUse">
<stop stop-color="#EF9C14"/>
<stop offset="0.5" stop-color="#F18231"/>
<stop offset="1" stop-color="#F2B34B"/>
</linearGradient>
</defs>
</svg>
