<svg width="38" height="51" viewBox="0 0 38 51" fill="none" xmlns="http://www.w3.org/2000/svg">
<path d="M20.7678 1.23223C19.7915 0.255924 18.2085 0.255924 17.2322 1.23223L1.32233 17.1421C0.346021 18.1184 0.346021 19.7014 1.32233 20.6777C2.29864 21.654 3.88155 21.654 4.85787 20.6777L19 6.53553L33.1421 20.6777C34.1184 21.654 35.7014 21.654 36.6777 20.6777C37.654 19.7014 37.654 18.1184 36.6777 17.1421L20.7678 1.23223ZM21.5 51L21.5 15.5207L16.5 15.5207L16.5 51L21.5 51ZM21.5 15.5207L21.5 3L16.5 3L16.5 15.5207L21.5 15.5207Z" fill="url(#paint0_linear_113_1691)"/>
<defs>
<linearGradient id="paint0_linear_113_1691" x1="20.9199" y1="41.4145" x2="9.9003" y2="0.130225" gradientUnits="userSpaceOnUse">
<stop stop-color="#EF9C14"/>
<stop offset="0.5" stop-color="#F18231"/>
<stop offset="1" stop-color="#F2B34B"/>
</linearGradient>
</defs>
</svg>
