<svg width="16" height="17" viewBox="0 0 16 17" fill="none" xmlns="http://www.w3.org/2000/svg">
<rect y="0.5" width="16" height="16" rx="8" fill="url(#paint0_linear_134_3209)"/>
<path d="M11.4774 12.4647C11.6776 12.3244 11.87 12.1705 12.0534 12.003C12.4995 11.5932 12.8545 11.1324 13.1202 10.6406C12.9199 10.7809 12.7266 10.9348 12.5432 11.1032C12.098 11.513 11.7421 11.9738 11.4764 12.4647H11.4774Z" fill="white"/>
<path d="M7.59888 9.2852C6.87514 8.97649 6.06912 8.80347 5.21947 8.80347C4.24688 8.80347 3.3318 9.02931 2.53271 9.42636C2.80932 10.6084 3.52513 11.6411 4.51457 12.3732C4.83579 11.6511 5.31465 10.9745 5.95312 10.388C6.44982 9.93177 7.007 9.56478 7.59987 9.28429L7.59888 9.2852Z" fill="white"/>
<path d="M5.27894 8.46588C6.28623 8.46588 7.24295 8.66804 8.10251 9.02957C8.52684 8.86475 8.96505 8.7409 9.41119 8.65712C9.62732 8.26644 9.74927 7.82478 9.74927 7.35761C9.74927 5.76942 8.34839 4.48267 6.61935 4.48267C4.89031 4.48267 3.49042 5.76942 3.49042 7.35761C3.49042 7.80838 3.60344 8.23457 3.8047 8.6134C4.27959 8.51688 4.77332 8.46588 5.27993 8.46588H5.27894Z" fill="white"/>
<path d="M12.6373 9.40826C12.5441 9.37183 12.4509 9.33814 12.3557 9.30626C10.6782 9.23888 8.97693 9.79256 7.69502 10.97C6.98021 11.6266 6.47657 12.4043 6.18311 13.2303C6.23962 13.2485 6.29712 13.2667 6.35462 13.2831C6.3576 13.2831 6.36057 13.2849 6.36255 13.2858C6.43294 13.3059 6.50433 13.325 6.5767 13.3432C6.59157 13.3468 6.60545 13.3496 6.62032 13.3532C6.6808 13.3678 6.74227 13.3815 6.80374 13.3942C6.82654 13.3988 6.84934 13.4033 6.87214 13.4079C6.9009 13.4133 6.92965 13.4188 6.9584 13.4233C7.21418 12.6593 7.64942 11.9326 8.26906 11.2979C9.43398 10.1049 11.0212 9.46927 12.6363 9.40826H12.6373Z" fill="white"/>
<path d="M13.2252 9.67885C13.1201 9.6233 13.013 9.57139 12.905 9.52222C11.3931 9.64242 9.92873 10.2872 8.86692 11.4328C8.28693 12.0575 7.8864 12.7678 7.65936 13.51C7.69109 13.5118 7.72281 13.5145 7.75553 13.5154C7.78924 13.5173 7.82196 13.5182 7.85566 13.52C7.90226 13.5218 7.94985 13.5227 7.99744 13.5227C8.03908 13.5227 8.08072 13.5227 8.12236 13.5227C8.14318 13.5227 8.16301 13.5227 8.18383 13.5227C8.24034 13.5218 8.29685 13.5191 8.35435 13.5164C8.59923 12.8352 8.98787 12.1841 9.52621 11.604C10.5137 10.5394 11.8352 9.89194 13.2272 9.67885H13.2252Z" fill="white"/>
<path d="M10.125 11.889C9.73042 12.3643 9.43101 12.878 9.22083 13.4116C9.5817 13.3424 9.93663 13.2404 10.2797 13.1056C10.4829 12.6457 10.7546 12.2022 11.0976 11.7879C11.7202 11.0375 12.5461 10.34 13.4145 9.96203L13.4671 9.83545C12.1802 10.1487 10.9935 10.8417 10.124 11.889H10.125Z" fill="white"/>
<path d="M11.8809 9.16781C11.7084 9.12501 11.5339 9.09041 11.3584 9.06309C11.3515 9.06218 11.3435 9.06127 11.3366 9.05944C11.2821 9.05125 11.2266 9.04396 11.172 9.03668C11.1641 9.03577 11.1572 9.03486 11.1492 9.03395C10.9797 9.013 10.8092 9.00025 10.6386 8.99388C10.6307 8.99388 10.6228 8.99388 10.6139 8.99297C10.5623 8.99115 10.5108 8.99023 10.4592 8.99023C10.4433 8.99023 10.4275 8.99023 10.4126 8.99023C10.362 8.99023 10.3105 8.99023 10.2599 8.99206C10.253 8.99206 10.246 8.99206 10.2381 8.99206C10.132 8.99479 10.0269 9.00116 9.92085 9.00936C9.90995 9.00936 9.89904 9.01118 9.88814 9.01209C9.84253 9.01573 9.79693 9.02029 9.75132 9.02575C9.72753 9.02848 9.70472 9.03121 9.68093 9.03395C9.6383 9.03941 9.59468 9.04487 9.55205 9.05034C9.52627 9.05398 9.50148 9.05762 9.47571 9.06218C9.39738 9.07401 9.31807 9.08767 9.23975 9.10316C9.21695 9.10771 9.19414 9.11135 9.17134 9.11591C9.13466 9.12319 9.09698 9.1323 9.0603 9.14049C9.02857 9.14778 8.99586 9.15506 8.96413 9.16235C8.92844 9.17054 8.89374 9.17965 8.85805 9.18876C8.82335 9.19786 8.78964 9.20697 8.75494 9.21699C8.72222 9.22609 8.68951 9.2352 8.65679 9.24522C8.60524 9.2607 8.55467 9.27709 8.50411 9.29348C8.46941 9.30441 8.43471 9.31716 8.40001 9.329C8.35738 9.34448 8.31376 9.35905 8.27113 9.37544C8.24337 9.38637 8.21462 9.3973 8.18686 9.40823C8.1472 9.42371 8.10754 9.4401 8.06789 9.45649C8.04112 9.46742 8.01435 9.47926 7.98857 9.49018C7.94098 9.51113 7.8934 9.53299 7.84581 9.55484C7.82895 9.56304 7.8121 9.57032 7.79525 9.57852C7.73279 9.60857 7.67132 9.63953 7.60985 9.67232C7.58903 9.68324 7.56821 9.69508 7.54739 9.70601C7.50377 9.72969 7.46114 9.75336 7.4185 9.77795C7.39669 9.7907 7.37389 9.80345 7.35208 9.81711C7.30747 9.84352 7.26285 9.87084 7.21824 9.89907C7.20138 9.91 7.18354 9.92093 7.16668 9.93185C7.10621 9.97101 7.04672 10.0102 6.98823 10.0521C6.97534 10.0612 6.96245 10.0712 6.94956 10.0803C6.90297 10.114 6.85637 10.1477 6.81076 10.1823C6.79193 10.1969 6.77309 10.2114 6.75425 10.226C6.71261 10.2579 6.67196 10.2907 6.63231 10.3243C6.61545 10.3389 6.59761 10.3526 6.58075 10.3671C6.52523 10.4145 6.46971 10.4628 6.41519 10.5129C5.72912 11.1439 5.25522 11.8961 4.99646 12.6948C5.04504 12.7239 5.09362 12.7512 5.14319 12.7786C5.17789 12.7977 5.21259 12.8159 5.24729 12.835C5.26018 12.8423 5.27307 12.8487 5.28596 12.856C5.33156 12.8796 5.37717 12.9024 5.42376 12.9252C5.42575 12.9261 5.42674 12.927 5.42872 12.9279C5.4773 12.9516 5.52687 12.9744 5.57644 12.9971C5.85602 12.1766 6.34876 11.4035 7.05564 10.7542C8.37523 9.54209 10.1588 9.01482 11.8819 9.17146L11.8809 9.16781Z" fill="white"/>
<path d="M10.7892 8.17397C10.5801 8.14574 10.1805 7.78421 10.3828 7.24146C10.7972 7.39991 10.8923 7.91534 10.7892 8.17397Z" fill="white"/>
<path d="M10.3243 7.22507L10.36 7.16496L10.4146 7.17953C10.4146 7.17953 10.2599 6.80161 10.3511 6.43188C10.2569 6.72329 10.2877 7.07754 10.3233 7.22507H10.3243Z" fill="white"/>
<path d="M10.9677 7.51601C10.7585 7.48869 10.359 7.12625 10.5612 6.5835C10.9756 6.74195 11.0708 7.25738 10.9677 7.51601Z" fill="white"/>
<path d="M10.5028 6.56686L10.5385 6.50676L10.593 6.52133C10.593 6.52133 10.4384 6.14341 10.5296 5.77368C10.4354 6.06509 10.4661 6.41934 10.5018 6.56686H10.5028Z" fill="white"/>
<path d="M11.1533 6.87022C10.9451 6.83834 10.5535 6.46953 10.7667 5.93042C11.1781 6.09707 11.2614 6.61341 11.1533 6.87022Z" fill="white"/>
<path d="M10.709 5.91288L10.7467 5.85368L10.8012 5.86917C10.8012 5.86917 10.6555 5.48851 10.7546 5.12061C10.6545 5.41019 10.6773 5.76444 10.71 5.91288H10.709Z" fill="white"/>
<path d="M11.3197 6.2126C11.1135 6.17253 10.7407 5.78642 10.9817 5.25732C11.3842 5.44128 11.4407 5.96035 11.3197 6.2126Z" fill="white"/>
<path d="M10.9241 5.23754L10.9647 5.17926L11.0183 5.19747C11.0183 5.19747 10.8914 4.81044 11.0093 4.448C10.8943 4.73303 10.8993 5.08819 10.9241 5.23754Z" fill="white"/>
<path d="M11.4545 5.61163C11.2721 5.51419 11.047 5.04156 11.4545 4.60718C11.7757 4.89677 11.6548 5.40673 11.4545 5.61163Z" fill="white"/>
<path d="M11.4078 4.57185L11.4653 4.52814L11.5109 4.56001C11.5109 4.56001 11.5209 4.15659 11.7548 3.84424C11.5496 4.08283 11.4346 4.42159 11.4078 4.57094V4.57185Z" fill="white"/>
<path d="M10.8647 8.18342C11.062 8.25263 11.6033 8.11421 11.7133 7.55052C11.2672 7.50407 10.9123 7.91205 10.8647 8.18342Z" fill="white"/>
<path d="M11.7726 7.5622V7.49299L11.7171 7.48116C11.7171 7.48116 12.0522 7.2198 12.1682 6.85645C12.0958 7.15332 11.8817 7.44837 11.7726 7.5622Z" fill="white"/>
<path d="M11.0383 7.5123C11.2336 7.58607 11.7779 7.46222 11.9058 6.90034C11.4606 6.84297 11.0938 7.24184 11.0383 7.5123Z" fill="white"/>
<path d="M11.9642 6.91303L11.9662 6.84473L11.9107 6.83107C11.9107 6.83107 12.2537 6.57791 12.3796 6.21729C12.2984 6.51143 12.0763 6.80193 11.9633 6.91303H11.9642Z" fill="white"/>
<path d="M11.2245 6.87132C11.4218 6.93962 11.9621 6.80028 12.0722 6.23568C11.625 6.19014 11.2721 6.59903 11.2245 6.87132Z" fill="white"/>
<path d="M12.1306 6.24751V6.17921L12.0751 6.16737C12.0751 6.16737 12.4092 5.9051 12.5242 5.54175C12.4528 5.83862 12.2396 6.13459 12.1306 6.24842V6.24751Z" fill="white"/>
<path d="M11.3991 6.20192C11.5974 6.26839 12.1367 6.12451 12.2398 5.55899C11.7927 5.51801 11.4427 5.92963 11.3991 6.20192Z" fill="white"/>
<path d="M12.2992 5.56975V5.50145L12.2427 5.49053C12.2427 5.49053 12.5739 5.22552 12.6849 4.86035C12.6165 5.15723 12.4063 5.45592 12.2992 5.57066V5.56975Z" fill="white"/>
<path d="M11.5776 5.62054C11.7789 5.67883 12.3103 5.51309 12.3856 4.94301C11.9365 4.92025 11.6084 5.34644 11.5776 5.62054Z" fill="white"/>
<path d="M12.4451 4.9512L12.4411 4.8829L12.3846 4.8738C12.3846 4.8738 12.7028 4.59513 12.795 4.22632C12.7415 4.52592 12.5462 4.83282 12.4441 4.9512H12.4451Z" fill="white"/>
<path d="M11.748 5.1038C11.6251 4.94626 11.63 4.43082 12.1951 4.18677C12.3587 4.57106 12.0216 4.99179 11.748 5.1038Z" fill="white"/>
<path d="M12.1684 4.13728L12.2408 4.11906L12.2675 4.16551C12.2675 4.16551 12.4985 3.75935 12.682 3.47705C12.4747 3.75844 12.2596 4.0107 12.1684 4.13637V4.13728Z" fill="white"/>
<path d="M10.7141 9.00284C10.7111 8.70323 10.731 8.42912 10.7706 8.23242L10.8539 8.24608C10.8152 8.4355 10.7934 8.71507 10.7964 9.00557L10.7141 9.00284Z" fill="white"/>
<defs>
<linearGradient id="paint0_linear_134_3209" x1="0" y1="16.5" x2="14.3743" y2="-0.84707" gradientUnits="userSpaceOnUse">
<stop stop-color="#EF9C14"/>
<stop offset="0.5" stop-color="#F18231"/>
<stop offset="1" stop-color="#F2B34B"/>
</linearGradient>
</defs>
</svg>
