<svg width="16" height="16" viewBox="0 0 16 16" fill="none" xmlns="http://www.w3.org/2000/svg">
<rect width="16" height="16" rx="8" fill="black"/>
<path d="M11.4774 11.9647C11.6776 11.8244 11.87 11.6705 12.0534 11.503C12.4995 11.0932 12.8545 10.6324 13.1202 10.1406C12.9199 10.2809 12.7266 10.4348 12.5432 10.6032C12.098 11.013 11.7421 11.4738 11.4764 11.9647H11.4774Z" fill="white"/>
<path d="M7.59888 8.7852C6.87514 8.47649 6.06912 8.30347 5.21947 8.30347C4.24688 8.30347 3.3318 8.52931 2.53271 8.92636C2.80932 10.1084 3.52513 11.1411 4.51457 11.8732C4.83579 11.1511 5.31465 10.4745 5.95312 9.88801C6.44982 9.43177 7.007 9.06478 7.59987 8.78429L7.59888 8.7852Z" fill="white"/>
<path d="M5.27894 7.96588C6.28623 7.96588 7.24295 8.16804 8.10251 8.52957C8.52684 8.36475 8.96505 8.2409 9.41119 8.15712C9.62732 7.76644 9.74927 7.32478 9.74927 6.85761C9.74927 5.26942 8.34839 3.98267 6.61935 3.98267C4.89031 3.98267 3.49042 5.26942 3.49042 6.85761C3.49042 7.30838 3.60344 7.73457 3.8047 8.1134C4.27959 8.01688 4.77332 7.96588 5.27993 7.96588H5.27894Z" fill="white"/>
<path d="M12.6373 8.90826C12.5441 8.87183 12.4509 8.83814 12.3557 8.80626C10.6782 8.73888 8.97693 9.29256 7.69502 10.47C6.98021 11.1266 6.47657 11.9043 6.18311 12.7303C6.23962 12.7485 6.29712 12.7667 6.35462 12.7831C6.3576 12.7831 6.36057 12.7849 6.36255 12.7858C6.43294 12.8059 6.50433 12.825 6.5767 12.8432C6.59157 12.8468 6.60545 12.8496 6.62032 12.8532C6.6808 12.8678 6.74227 12.8815 6.80374 12.8942C6.82654 12.8988 6.84934 12.9033 6.87214 12.9079C6.9009 12.9133 6.92965 12.9188 6.9584 12.9233C7.21418 12.1593 7.64942 11.4326 8.26906 10.7979C9.43398 9.60491 11.0212 8.96927 12.6363 8.90826H12.6373Z" fill="white"/>
<path d="M13.2252 9.17885C13.1201 9.1233 13.013 9.07139 12.905 9.02222C11.3931 9.14242 9.92873 9.78717 8.86692 10.9328C8.28693 11.5575 7.8864 12.2678 7.65936 13.01C7.69109 13.0118 7.72281 13.0145 7.75553 13.0154C7.78924 13.0173 7.82196 13.0182 7.85566 13.02C7.90226 13.0218 7.94985 13.0227 7.99744 13.0227C8.03908 13.0227 8.08072 13.0227 8.12236 13.0227C8.14318 13.0227 8.16301 13.0227 8.18383 13.0227C8.24034 13.0218 8.29685 13.0191 8.35435 13.0164C8.59923 12.3352 8.98787 11.6841 9.52621 11.104C10.5137 10.0394 11.8352 9.39194 13.2272 9.17885H13.2252Z" fill="white"/>
<path d="M10.125 11.389C9.73042 11.8643 9.43101 12.378 9.22083 12.9116C9.5817 12.8424 9.93663 12.7404 10.2797 12.6056C10.4829 12.1457 10.7546 11.7022 11.0976 11.2879C11.7202 10.5375 12.5461 9.83995 13.4145 9.46203L13.4671 9.33545C12.1802 9.64872 10.9935 10.3417 10.124 11.389H10.125Z" fill="white"/>
<path d="M11.8809 8.66781C11.7084 8.62501 11.5339 8.59041 11.3584 8.56309C11.3515 8.56218 11.3435 8.56127 11.3366 8.55944C11.2821 8.55125 11.2266 8.54396 11.172 8.53668C11.1641 8.53577 11.1572 8.53486 11.1492 8.53395C10.9797 8.513 10.8092 8.50025 10.6386 8.49388C10.6307 8.49388 10.6228 8.49388 10.6139 8.49297C10.5623 8.49115 10.5108 8.49023 10.4592 8.49023C10.4433 8.49023 10.4275 8.49023 10.4126 8.49023C10.362 8.49023 10.3105 8.49023 10.2599 8.49206C10.253 8.49206 10.246 8.49206 10.2381 8.49206C10.132 8.49479 10.0269 8.50116 9.92085 8.50936C9.90995 8.50936 9.89904 8.51118 9.88814 8.51209C9.84253 8.51573 9.79693 8.52029 9.75132 8.52575C9.72753 8.52848 9.70472 8.53121 9.68093 8.53395C9.6383 8.53941 9.59468 8.54487 9.55205 8.55034C9.52627 8.55398 9.50148 8.55762 9.47571 8.56218C9.39738 8.57401 9.31807 8.58767 9.23975 8.60316C9.21695 8.60771 9.19414 8.61135 9.17134 8.61591C9.13466 8.62319 9.09698 8.6323 9.0603 8.64049C9.02857 8.64778 8.99586 8.65506 8.96413 8.66235C8.92844 8.67054 8.89374 8.67965 8.85805 8.68876C8.82335 8.69786 8.78964 8.70697 8.75494 8.71699C8.72222 8.72609 8.68951 8.7352 8.65679 8.74522C8.60524 8.7607 8.55467 8.77709 8.50411 8.79348C8.46941 8.80441 8.43471 8.81716 8.40001 8.829C8.35738 8.84448 8.31376 8.85905 8.27113 8.87544C8.24337 8.88637 8.21462 8.8973 8.18686 8.90823C8.1472 8.92371 8.10754 8.9401 8.06789 8.95649C8.04112 8.96742 8.01435 8.97926 7.98857 8.99018C7.94098 9.01113 7.8934 9.03299 7.84581 9.05484C7.82895 9.06304 7.8121 9.07032 7.79525 9.07852C7.73279 9.10857 7.67132 9.13953 7.60985 9.17232C7.58903 9.18324 7.56821 9.19508 7.54739 9.20601C7.50377 9.22969 7.46114 9.25336 7.4185 9.27795C7.39669 9.2907 7.37389 9.30345 7.35208 9.31711C7.30747 9.34352 7.26285 9.37084 7.21824 9.39907C7.20138 9.41 7.18354 9.42093 7.16668 9.43185C7.10621 9.47101 7.04672 9.51017 6.98823 9.55206C6.97534 9.56117 6.96245 9.57118 6.94956 9.58029C6.90297 9.61398 6.85637 9.64768 6.81076 9.68228C6.79193 9.69685 6.77309 9.71143 6.75425 9.726C6.71261 9.75787 6.67196 9.79065 6.63231 9.82435C6.61545 9.83892 6.59761 9.85258 6.58075 9.86715C6.52523 9.9145 6.46971 9.96277 6.41519 10.0129C5.72912 10.6439 5.25522 11.3961 4.99646 12.1948C5.04504 12.2239 5.09362 12.2512 5.14319 12.2786C5.17789 12.2977 5.21259 12.3159 5.24729 12.335C5.26018 12.3423 5.27307 12.3487 5.28596 12.356C5.33156 12.3796 5.37717 12.4024 5.42376 12.4252C5.42575 12.4261 5.42674 12.427 5.42872 12.4279C5.4773 12.4516 5.52687 12.4744 5.57644 12.4971C5.85602 11.6766 6.34876 10.9035 7.05564 10.2542C8.37523 9.04209 10.1588 8.51482 11.8819 8.67146L11.8809 8.66781Z" fill="white"/>
<path d="M10.7892 7.67397C10.5801 7.64574 10.1805 7.28421 10.3828 6.74146C10.7972 6.89991 10.8923 7.41534 10.7892 7.67397Z" fill="white"/>
<path d="M10.3243 6.72507L10.36 6.66496L10.4146 6.67953C10.4146 6.67953 10.2599 6.30161 10.3511 5.93188C10.2569 6.22329 10.2877 6.57754 10.3233 6.72507H10.3243Z" fill="white"/>
<path d="M10.9677 7.01601C10.7585 6.98869 10.359 6.62625 10.5612 6.0835C10.9756 6.24195 11.0708 6.75738 10.9677 7.01601Z" fill="white"/>
<path d="M10.5028 6.06686L10.5385 6.00676L10.593 6.02133C10.593 6.02133 10.4384 5.64341 10.5296 5.27368C10.4354 5.56509 10.4661 5.91934 10.5018 6.06686H10.5028Z" fill="white"/>
<path d="M11.1533 6.37022C10.9451 6.33834 10.5535 5.96953 10.7667 5.43042C11.1781 5.59707 11.2614 6.11341 11.1533 6.37022Z" fill="white"/>
<path d="M10.709 5.41288L10.7467 5.35368L10.8012 5.36917C10.8012 5.36917 10.6555 4.98851 10.7546 4.62061C10.6545 4.91019 10.6773 5.26444 10.71 5.41288H10.709Z" fill="white"/>
<path d="M11.3197 5.7126C11.1135 5.67253 10.7407 5.28642 10.9817 4.75732C11.3842 4.94128 11.4407 5.46035 11.3197 5.7126Z" fill="white"/>
<path d="M10.9241 4.73754L10.9647 4.67926L11.0183 4.69747C11.0183 4.69747 10.8914 4.31044 11.0093 3.948C10.8943 4.23303 10.8993 4.58819 10.9241 4.73754Z" fill="white"/>
<path d="M11.4545 5.11163C11.2721 5.01419 11.047 4.54156 11.4545 4.10718C11.7757 4.39677 11.6548 4.90673 11.4545 5.11163Z" fill="white"/>
<path d="M11.4078 4.07185L11.4653 4.02814L11.5109 4.06001C11.5109 4.06001 11.5209 3.65659 11.7548 3.34424C11.5496 3.58283 11.4346 3.92159 11.4078 4.07094V4.07185Z" fill="white"/>
<path d="M10.8647 7.68342C11.062 7.75263 11.6033 7.61421 11.7133 7.05052C11.2672 7.00407 10.9123 7.41205 10.8647 7.68342Z" fill="white"/>
<path d="M11.7726 7.0622V6.99299L11.7171 6.98116C11.7171 6.98116 12.0522 6.7198 12.1682 6.35645C12.0958 6.65332 11.8817 6.94837 11.7726 7.0622Z" fill="white"/>
<path d="M11.0383 7.0123C11.2336 7.08607 11.7779 6.96222 11.9058 6.40034C11.4606 6.34297 11.0938 6.74184 11.0383 7.0123Z" fill="white"/>
<path d="M11.9642 6.41303L11.9662 6.34473L11.9107 6.33107C11.9107 6.33107 12.2537 6.07791 12.3796 5.71729C12.2984 6.01143 12.0763 6.30193 11.9633 6.41303H11.9642Z" fill="white"/>
<path d="M11.2245 6.37132C11.4218 6.43962 11.9621 6.30028 12.0722 5.73568C11.625 5.69014 11.2721 6.09903 11.2245 6.37132Z" fill="white"/>
<path d="M12.1306 5.74751V5.67921L12.0751 5.66737C12.0751 5.66737 12.4092 5.4051 12.5242 5.04175C12.4528 5.33862 12.2396 5.63459 12.1306 5.74842V5.74751Z" fill="white"/>
<path d="M11.3991 5.70192C11.5974 5.76839 12.1367 5.62451 12.2398 5.05899C11.7927 5.01801 11.4427 5.42963 11.3991 5.70192Z" fill="white"/>
<path d="M12.2992 5.06975V5.00145L12.2427 4.99053C12.2427 4.99053 12.5739 4.72552 12.6849 4.36035C12.6165 4.65723 12.4063 4.95592 12.2992 5.07066V5.06975Z" fill="white"/>
<path d="M11.5776 5.12054C11.7789 5.17883 12.3103 5.01309 12.3856 4.44301C11.9365 4.42025 11.6084 4.84644 11.5776 5.12054Z" fill="white"/>
<path d="M12.4451 4.4512L12.4411 4.3829L12.3846 4.3738C12.3846 4.3738 12.7028 4.09513 12.795 3.72632C12.7415 4.02592 12.5462 4.33282 12.4441 4.4512H12.4451Z" fill="white"/>
<path d="M11.748 4.6038C11.6251 4.44626 11.63 3.93082 12.1951 3.68677C12.3587 4.07106 12.0216 4.49179 11.748 4.6038Z" fill="white"/>
<path d="M12.1684 3.63728L12.2408 3.61906L12.2675 3.66551C12.2675 3.66551 12.4985 3.25935 12.682 2.97705C12.4747 3.25844 12.2596 3.5107 12.1684 3.63637V3.63728Z" fill="white"/>
<path d="M10.7141 8.50284C10.7111 8.20323 10.731 7.92912 10.7706 7.73242L10.8539 7.74608C10.8152 7.9355 10.7934 8.21507 10.7964 8.50557L10.7141 8.50284Z" fill="white"/>
</svg>
