<svg width="17" height="13" viewBox="0 0 17 13" fill="none" xmlns="http://www.w3.org/2000/svg">
<path fill-rule="evenodd" clip-rule="evenodd" d="M1.39472 0.461352C0.598129 0.654069 0.0967932 1.46597 0.297902 2.23765C0.359304 2.47328 0.474545 2.68377 0.631564 2.84706C0.77174 2.99287 7.42772 7.44057 7.67129 7.55122C8.04261 7.71986 8.48507 7.71371 8.86404 7.53457C9.16136 7.39404 15.6819 3.03272 15.8475 2.86362C16.6258 2.06889 16.201 0.721712 15.0897 0.459915C14.7972 0.391023 1.67979 0.392397 1.39472 0.461352ZM0.25 7.41868C0.25 9.94793 0.260499 11.1085 0.284435 11.2235C0.398926 11.774 0.844828 12.2229 1.40907 12.3558C1.70342 12.4252 14.7428 12.4273 15.0698 12.3581C15.6385 12.2376 16.0982 11.7819 16.2143 11.2235C16.254 11.033 16.2647 3.77233 16.2253 3.78982C16.2124 3.79553 14.7013 4.80109 12.8673 6.02438C11.0332 7.24767 9.43216 8.29913 9.30929 8.36097C8.96388 8.53482 8.67103 8.60118 8.24937 8.60118C7.82772 8.60118 7.53487 8.53482 7.18946 8.36097C7.06659 8.29913 5.4655 7.24767 3.63145 6.02438C1.79744 4.80109 0.286341 3.79553 0.273436 3.78982C0.26053 3.78407 0.25 5.41709 0.25 7.41868Z" fill="#AEAEAF"/>
</svg>
