<svg width="12" height="13" viewBox="0 0 12 13" fill="none" xmlns="http://www.w3.org/2000/svg">
<path fill-rule="evenodd" clip-rule="evenodd" d="M0.88403 0.660916C0.468068 0.73087 0.0928871 1.11465 0.0229742 1.54174C-0.00765808 1.72874 -0.00765808 11.5471 0.0229742 11.7341C0.0947152 12.1724 0.46692 12.5447 0.905077 12.6164C1.09203 12.6471 10.908 12.6471 11.0949 12.6164C11.5331 12.5447 11.9053 12.1724 11.977 11.7341C12.0077 11.5471 12.0077 1.72874 11.977 1.54174C11.9053 1.10347 11.5331 0.731175 11.0949 0.659416C10.9262 0.631777 1.04868 0.63323 0.88403 0.660916ZM9.55128 3.67422C9.59415 3.69457 9.73023 3.81532 9.85365 3.94255L10.0781 4.17388V4.29773V4.42158L7.68161 6.82122C6.36356 8.14103 5.24298 9.24887 5.19142 9.28312C5.10958 9.33749 5.07386 9.34539 4.91017 9.34548C4.75744 9.34555 4.70747 9.33603 4.64065 9.29405C4.59553 9.26568 3.96538 8.64815 3.24028 7.92175L1.92194 6.60097V6.49403C1.92194 6.41324 1.93835 6.36472 1.98907 6.29565C2.08971 6.15858 2.39851 5.86909 2.4752 5.83992C2.64137 5.77672 2.6289 5.76638 3.80894 6.9442L4.91078 8.04398L7.07815 5.87598C8.27019 4.6836 9.27726 3.69232 9.31609 3.67314C9.40675 3.62839 9.45517 3.6286 9.55128 3.67422Z" fill="#AEAEAF"/>
</svg>
