<svg width="14" height="17" viewBox="0 0 14 17" fill="none" xmlns="http://www.w3.org/2000/svg">
<path fill-rule="evenodd" clip-rule="evenodd" d="M6.0805 0.948924C5.24861 1.08316 4.50537 1.48772 3.92282 2.12339C3.28376 2.82072 2.95258 3.62596 2.90704 4.59317C2.84343 5.94405 3.48926 7.23543 4.60273 7.98392C5.15041 8.35205 5.67865 8.53897 6.31847 8.59101C7.50438 8.68744 8.51563 8.30483 9.33198 7.45078C9.97823 6.77471 10.3087 6.03911 10.3892 5.09763C10.4967 3.83999 10.0357 2.66872 9.11146 1.85154C8.51541 1.32446 7.96542 1.06415 7.20759 0.950331C6.84351 0.895642 6.41406 0.89511 6.0805 0.948924ZM3.31389 8.66102C1.93634 8.81036 0.981751 9.82501 0.53661 11.6131C0.239789 12.8053 0.163452 14.2381 0.354996 15.0214C0.50889 15.6506 1.01639 16.2892 1.60424 16.5932C1.87127 16.7314 2.25274 16.8459 2.57083 16.8834C2.7593 16.9057 4.19798 16.9133 6.94867 16.9066L11.0458 16.8966L11.3047 16.8237C12.2659 16.5528 12.9257 15.8918 13.1657 14.9588C13.2908 14.4729 13.2748 13.3164 13.1303 12.4026C12.8092 10.3713 11.9991 9.15169 10.7176 8.77049C10.4246 8.68334 9.90037 8.61705 9.74498 8.64754C9.59632 8.67668 9.38851 8.79066 8.91943 9.10025C8.41973 9.43005 8.35046 9.4676 7.97627 9.6115C7.54289 9.77813 7.18523 9.84839 6.77013 9.84846C6.3411 9.84849 6.01303 9.78817 5.58031 9.62973C5.1717 9.48011 5.154 9.47054 4.51585 9.05451C4.17934 8.83512 3.93037 8.6946 3.83143 8.66827C3.66234 8.62324 3.66237 8.62324 3.31389 8.66102Z" fill="#AEAEAF"/>
</svg>
