<svg width="17" height="17" viewBox="0 0 17 17" fill="none" xmlns="http://www.w3.org/2000/svg">
<path fill-rule="evenodd" clip-rule="evenodd" d="M3.01965 0.451184C2.63176 0.535327 2.55703 0.593686 1.54325 1.60475C0.658559 2.48709 0.590139 2.56337 0.486347 2.78285C0.315328 3.14456 0.272644 3.34107 0.254127 3.85247C0.235421 4.36887 0.277729 4.71008 0.434185 5.30406C1.37672 8.88249 5.60148 13.5889 9.64505 15.565C10.8442 16.151 11.7495 16.4059 12.6424 16.4089C13.1889 16.4107 13.4653 16.3556 13.844 16.1693C14.0879 16.0493 14.152 15.9925 15.0324 15.1156C16.0182 14.1336 16.0772 14.0594 16.2011 13.6432C16.2663 13.4241 16.2663 13.0132 16.2011 12.7941C16.0888 12.4166 16.043 12.3617 14.7961 11.1113C14.138 10.4514 13.5149 9.85124 13.4113 9.77774C12.7886 9.33575 11.989 9.39705 11.4682 9.92669C11.3105 10.087 11.2499 10.1808 11.141 10.4329C11.0675 10.6031 10.9692 10.7939 10.9225 10.857C10.6226 11.2621 10.0435 11.5201 9.55089 11.468C8.81651 11.3903 7.72081 10.7287 6.79265 9.80259C5.66902 8.6814 5.00629 7.3914 5.16792 6.64003C5.24318 6.29015 5.48953 5.92404 5.78088 5.729C5.852 5.68141 6.00199 5.60346 6.11419 5.55583C6.44016 5.41737 6.52035 5.37196 6.67166 5.24019C7.19391 4.78534 7.30822 3.93401 6.92808 3.33046C6.81619 3.15285 4.65204 0.969625 4.38799 0.768012C4.17749 0.607267 3.90121 0.483477 3.65251 0.438417C3.4169 0.395735 3.26072 0.398895 3.01965 0.451184Z" fill="#AEAEAF"/>
</svg>
