<svg width="257" height="168" viewBox="0 0 257 168" fill="none" xmlns="http://www.w3.org/2000/svg">
<line opacity="0.1" x1="1.61468e-09" y1="153.75" x2="257" y2="155.75" stroke="black" stroke-width="0.5"/>
<line opacity="0.1" x1="1.61468e-09" y1="137.75" x2="257" y2="139.75" stroke="black" stroke-width="0.5"/>
<line opacity="0.1" x1="1.61468e-09" y1="121.75" x2="257" y2="123.75" stroke="black" stroke-width="0.5"/>
<line opacity="0.1" x1="1.61468e-09" y1="105.75" x2="257" y2="107.75" stroke="black" stroke-width="0.5"/>
<line opacity="0.1" x1="1.61468e-09" y1="89.75" x2="257" y2="91.75" stroke="black" stroke-width="0.5"/>
<line opacity="0.1" x1="1.61468e-09" y1="73.75" x2="257" y2="75.75" stroke="black" stroke-width="0.5"/>
<line opacity="0.1" x1="1.61468e-09" y1="57.75" x2="257" y2="59.75" stroke="black" stroke-width="0.5"/>
<line opacity="0.1" x1="1.61468e-09" y1="41.75" x2="257" y2="43.75" stroke="black" stroke-width="0.5"/>
<line opacity="0.1" x1="1.61468e-09" y1="25.75" x2="257" y2="27.75" stroke="black" stroke-width="0.5"/>
<line opacity="0.1" x1="1.61468e-09" y1="9.75" x2="257" y2="11.75" stroke="black" stroke-width="0.5"/>
<line opacity="0.2" x1="11.25" y1="-9.64277e-09" x2="11.25" y2="168" stroke="black" stroke-width="0.5" stroke-dasharray="2 2"/>
<line opacity="0.2" x1="32.25" y1="-9.64277e-09" x2="32.25" y2="168" stroke="black" stroke-width="0.5" stroke-dasharray="2 2"/>
<line opacity="0.2" x1="53.25" y1="-9.64277e-09" x2="53.25" y2="168" stroke="black" stroke-width="0.5" stroke-dasharray="2 2"/>
<line opacity="0.2" x1="74.25" y1="-9.64277e-09" x2="74.25" y2="168" stroke="black" stroke-width="0.5" stroke-dasharray="2 2"/>
<line opacity="0.2" x1="95.25" y1="-9.64277e-09" x2="95.25" y2="168" stroke="black" stroke-width="0.5" stroke-dasharray="2 2"/>
<line opacity="0.2" x1="116.25" y1="-9.64277e-09" x2="116.25" y2="168" stroke="black" stroke-width="0.5" stroke-dasharray="2 2"/>
<line opacity="0.2" x1="137.25" y1="-9.64277e-09" x2="137.25" y2="168" stroke="black" stroke-width="0.5" stroke-dasharray="2 2"/>
<line opacity="0.2" x1="158.25" y1="-9.64277e-09" x2="158.25" y2="168" stroke="black" stroke-width="0.5" stroke-dasharray="2 2"/>
<line opacity="0.2" x1="179.25" y1="-9.64277e-09" x2="179.25" y2="168" stroke="black" stroke-width="0.5" stroke-dasharray="2 2"/>
<line opacity="0.2" x1="200.25" y1="-9.64277e-09" x2="200.25" y2="168" stroke="black" stroke-width="0.5" stroke-dasharray="2 2"/>
<line opacity="0.2" x1="221.25" y1="-9.64277e-09" x2="221.25" y2="168" stroke="black" stroke-width="0.5" stroke-dasharray="2 2"/>
<line opacity="0.2" x1="242.25" y1="-9.64277e-09" x2="242.25" y2="168" stroke="black" stroke-width="0.5" stroke-dasharray="2 2"/>
</svg>
