<svg width="1010" height="451" viewBox="0 0 1010 451" fill="none" xmlns="http://www.w3.org/2000/svg">
<path d="M3 241.5C19.8239 192.681 25.6422 183.228 47 121.5C68.3578 59.7723 85 3.5 141 3.5C197 3.5 229.5 122 229.5 122C250.394 171.628 268.189 194.383 312 225L391 265.5C424.059 290.119 440.256 308.058 464 349C484.819 375.623 501.078 388.091 542 404C571.99 416.575 582 438 623.5 443.5C659.3 448.494 680.349 448.314 719.5 443.5C765.693 415.563 781.08 388.749 820.5 348.5C866.023 302.019 885.5 275.283 913.5 225C956.578 147.641 976.82 102.539 1006.5 20" stroke="black" stroke-width="6"/>
</svg>
