<svg width="244" height="154" viewBox="0 0 244 154" fill="none" xmlns="http://www.w3.org/2000/svg">
<path d="M1.5 81.5C5.54041 64.995 6.87072 60.8691 12 40C17.1293 19.1309 19.5511 1 33 1C46.4489 1 54 40 54 40C59.0178 56.7783 64.4783 64.6488 75 75L96 90C103.939 98.3232 111.298 105.158 117 119C122 128.001 127.5 131.5 138 136C146 140 149.033 149.641 159 151.5C167.598 153.188 170.598 152.628 180 151C191.094 141.555 191.533 132.607 201 119C211.933 103.286 215.276 91.9997 222 75C232.346 48.8462 235.872 36.9051 243 9" stroke="black" stroke-width="2"/>
</svg>
