<svg width="29" height="33" viewBox="0 0 29 33" fill="none" xmlns="http://www.w3.org/2000/svg">
<path d="M27.8172 23.1212L21.5535 20.1385C21.2859 20.0118 20.9885 19.9851 20.7061 20.0624C20.4236 20.1397 20.1715 20.3169 19.9875 20.5673L17.2136 24.333C12.8601 22.0523 9.35659 18.1595 7.30398 13.3223L10.6931 10.2401C10.9189 10.0361 11.0787 9.75593 11.1483 9.44199C11.2179 9.12804 11.1936 8.79743 11.079 8.50022L8.39454 1.5405C8.26877 1.22011 8.04633 0.958519 7.76557 0.80084C7.48481 0.643161 7.16333 0.599274 6.85657 0.676746L1.04023 2.16812C0.744474 2.244 0.4806 2.42903 0.291676 2.693C0.102751 2.95698 -6.813e-05 3.28431 3.38701e-08 3.62158C3.38701e-08 19.5606 11.6271 32.4547 25.9498 32.4547C26.2535 32.4549 26.5482 32.3407 26.7859 32.1308C27.0236 31.9209 27.1902 31.6276 27.2585 31.2989L28.6007 24.8363C28.67 24.4938 28.6297 24.1352 28.4867 23.8221C28.3437 23.5091 28.1069 23.2612 27.8172 23.1212Z" fill="#EF9C14"/>
</svg>
