<svg width="23" height="22" viewBox="0 0 23 22" fill="none" xmlns="http://www.w3.org/2000/svg">
<path fill-rule="evenodd" clip-rule="evenodd" d="M20.8665 0.292893C21.2571 -0.0976311 21.8902 -0.097631 22.2808 0.292893C22.6713 0.683417 22.6713 1.31658 22.2808 1.70711L13.3016 10.6863L22.7072 20.0919C23.0977 20.4824 23.0977 21.1156 22.7072 21.5061C22.3167 21.8966 21.6835 21.8966 21.293 21.5061L11.8874 12.1005L2.48177 21.5061C2.09124 21.8966 1.45808 21.8966 1.06755 21.5061C0.677028 21.1156 0.677028 20.4824 1.06755 20.0919L10.4731 10.6863L1.49397 1.70711C1.10345 1.31658 1.10345 0.683417 1.49397 0.292893C1.8845 -0.097631 2.51766 -0.0976311 2.90819 0.292893L11.8874 9.27207L20.8665 0.292893Z" fill="white"/>
</svg>
