<svg width="18" height="21" viewBox="0 0 18 21" fill="none" xmlns="http://www.w3.org/2000/svg">
<path d="M8.75 10.049C11.5117 10.049 13.75 7.81067 13.75 5.04895C13.75 2.28723 11.5117 0.0489502 8.75 0.0489502C5.98828 0.0489502 3.75 2.28723 3.75 5.04895C3.75 7.81067 5.98828 10.049 8.75 10.049ZM12.4922 11.3224L10.625 18.799L9.375 13.4865L10.625 11.299H6.875L8.125 13.4865L6.875 18.799L5.00781 11.3224C2.22266 11.4552 0 13.7325 0 16.549V18.174C0 19.2091 0.839844 20.049 1.875 20.049H15.625C16.6602 20.049 17.5 19.2091 17.5 18.174V16.549C17.5 13.7325 15.2773 11.4552 12.4922 11.3224Z" fill="#939DAA"/>
</svg>
