<svg width="25" height="26" viewBox="0 0 25 26" fill="none" xmlns="http://www.w3.org/2000/svg">
<g opacity="0.1">
<path d="M20.3125 3.92383H4.6875C4.2731 3.92383 3.87567 4.08845 3.58265 4.38147C3.28962 4.6745 3.125 5.07193 3.125 5.48633V21.1113C3.125 21.5257 3.28962 21.9232 3.58265 22.2162C3.87567 22.5092 4.2731 22.6738 4.6875 22.6738H20.3125C20.7269 22.6738 21.1243 22.5092 21.4174 22.2162C21.7104 21.9232 21.875 21.5257 21.875 21.1113V5.48633C21.875 5.07193 21.7104 4.6745 21.4174 4.38147C21.1243 4.08845 20.7269 3.92383 20.3125 3.92383ZM4.6875 21.1113V5.48633H20.3125V21.1113H4.6875Z" fill="white"/>
<path d="M10.9375 17.5957L7.03125 13.7207L8.27344 12.5176L10.9375 15.1348L16.7266 9.39258L17.9688 10.627L10.9375 17.5957Z" fill="white"/>
</g>
</svg>
